<svg xmlns="http://www.w3.org/2000/svg" xmlns:xlink="http://www.w3.org/1999/xlink" version="1.1" data-diagram-type="ACTIVITY" style="width:1070px;height:1203px;background:#FFFFFF;" width="1070px" height="1203px" viewBox="0 0 1070 1203" zoomAndPan="magnify" preserveAspectRatio="none" contentStyleType="text/css"><?plantuml 1.2026.7beta3?><defs/><g><g class="title" data-source-line="5"><text x="423.0298" y="32.9951" fill="#000000" font-size="14" lengthAdjust="spacing" textLength="222.4004" font-weight="700" font-family="'Arial'">RAG_Racer: Final Logic Flow</text></g><rect x="13" y="50.2969" width="1039.46" height="16.6406" fill="#FFFFCC" style="stroke:#FFDD88;stroke-width:3;" rx="2.5" ry="2.5"/><text x="20" y="60.9375" fill="#000000" font-size="10" lengthAdjust="spacing" textLength="355.21" font-family="monospace">Please use '!option handwritten true' to enable handwritten</text><rect x="20" y="76.6826" width="1023.46" height="20.9531" fill="none" style="stroke:none;stroke-width:1;"/><rect x="20" y="76.6826" width="435.4517" height="1105.8281" fill="#ADD8E6" style="stroke:#ADD8E6;stroke-width:1;"/><ellipse cx="267.6785" cy="112.6357" rx="10" ry="10" fill="#222222" style="stroke:#222222;stroke-width:1;"/><rect x="153.0505" y="186.6357" width="229.2559" height="33.9688" fill="#F1F1F1" style="stroke:#181818;stroke-width:0.5;" rx="12.5" ry="12.5"/><text x="163.0505" y="207.7744" fill="#000000" font-size="12" lengthAdjust="spacing" textLength="209.2559" font-family="'Arial'">Drive forward (Increase Y-position)</text><rect x="187.8376" y="240.6045" width="159.6816" height="33.9688" fill="#F1F1F1" style="stroke:#181818;stroke-width:0.5;" rx="12.5" ry="12.5"/><text x="197.8376" y="261.7432" fill="#000000" font-size="12" lengthAdjust="spacing" textLength="139.6816" font-family="'Arial'">Render 3 lanes visually</text><polygon points="178.8701,294.5732,356.4868,294.5732,368.4868,306.5732,356.4868,318.5732,178.8701,318.5732,166.8701,306.5732,178.8701,294.5732" fill="#F1F1F1" style="stroke:#181818;stroke-width:0.5;stroke-linejoin:miter;stroke-miterlimit:10;"/><text x="178.8701" y="310.3813" fill="#000000" font-size="11" lengthAdjust="spacing" textLength="177.6167" font-family="'Arial'">Sensors detect a NEW obstacle?</text><text x="147.6523" y="303.979" fill="#000000" font-size="11" lengthAdjust="spacing" textLength="19.2178" font-family="'Arial'">Yes</text><text x="368.4868" y="303.979" fill="#000000" font-size="11" lengthAdjust="spacing" textLength="14.9585" font-family="'Arial'">No</text><rect x="53" y="338.5732" width="207.7402" height="33.9688" fill="#F1F1F1" style="stroke:#181818;stroke-width:0.5;" rx="12.5" ry="12.5"/><text x="63" y="359.7119" fill="#000000" font-size="12" lengthAdjust="spacing" textLength="187.7402" font-family="'Arial'">Send obstacle data to Manager</text><rect x="80.2197" y="974.5732" width="153.3008" height="33.9688" fill="#F1F1F1" style="stroke:#181818;stroke-width:0.5;" rx="12.5" ry="12.5"/><text x="90.2197" y="995.7119" fill="#000000" font-size="12" lengthAdjust="spacing" textLength="133.3008" font-family="'Arial'">Execute "MOVE_LEFT"</text><rect x="56.0586" y="1028.542" width="201.623" height="33.9688" fill="#F1F1F1" style="stroke:#181818;stroke-width:0.5;" rx="12.5" ry="12.5"/><text x="66.0586" y="1049.6807" fill="#000000" font-size="12" lengthAdjust="spacing" textLength="181.623" font-family="'Arial'">Animate car shifting to Lane 1</text><rect x="305.522" y="338.5732" width="145.9297" height="33.9688" fill="#F1F1F1" style="stroke:#181818;stroke-width:0.5;" rx="12.5" ry="12.5"/><text x="315.522" y="359.7119" fill="#000000" font-size="12" lengthAdjust="spacing" textLength="125.9297" font-family="'Arial'">Keep driving straight</text><polygon points="267.6785,1072.5107,279.6785,1084.5107,267.6785,1096.5107,255.6785,1084.5107,267.6785,1072.5107" fill="#F1F1F1" style="stroke:#181818;stroke-width:0.5;stroke-linejoin:miter;stroke-miterlimit:10;"/><polygon points="267.6785,142.6357,279.6785,154.6357,267.6785,166.6357,255.6785,154.6357,267.6785,142.6357" fill="#F1F1F1" style="stroke:#181818;stroke-width:0.5;stroke-linejoin:miter;stroke-miterlimit:10;"/><polygon points="229.5276,1116.5107,305.8293,1116.5107,317.8293,1128.5107,305.8293,1140.5107,229.5276,1140.5107,217.5276,1128.5107,229.5276,1116.5107" fill="#F1F1F1" style="stroke:#181818;stroke-width:0.5;stroke-linejoin:miter;stroke-miterlimit:10;"/><text x="229.5276" y="1132.3188" fill="#000000" font-size="11" lengthAdjust="spacing" textLength="76.3018" font-family="'Arial'">Game Active?</text><text x="317.8293" y="1125.9165" fill="#000000" font-size="11" lengthAdjust="spacing" textLength="19.2178" font-family="'Arial'">Yes</text><ellipse cx="267.6785" cy="1171.5107" rx="11" ry="11" fill="none" style="stroke:#222222;stroke-width:1;"/><ellipse cx="267.6785" cy="1171.5107" rx="6" ry="6" fill="#222222" style="stroke:#222222;stroke-width:1;"/><line x1="20" y1="76.6826" x2="20" y2="1182.5107" style="stroke:#000000;stroke-width:1.5;"/><rect x="455.4517" y="76.6826" width="287.3301" height="1105.8281" fill="#FFFFE0" style="stroke:#FFFFE0;stroke-width:1;"/><rect x="487.7095" y="392.542" width="224.8145" height="33.9688" fill="#F1F1F1" style="stroke:#181818;stroke-width:0.5;" rx="12.5" ry="12.5"/><text x="497.7095" y="413.6807" fill="#000000" font-size="12" lengthAdjust="spacing" textLength="204.8145" font-family="'Arial'">Receive new obstacle coordinates</text><rect x="474.1714" y="514.4482" width="251.8906" height="47.9375" fill="#F1F1F1" style="stroke:#181818;stroke-width:0.5;" rx="12.5" ry="12.5"/><text x="484.1714" y="535.5869" fill="#000000" font-size="12" lengthAdjust="spacing" textLength="101.584" font-family="'Arial'">Query Database:</text><text x="484.1714" y="549.5557" fill="#000000" font-size="12" lengthAdjust="spacing" textLength="231.8906" font-family="'Arial'">"What is in front of the car right now?"</text><rect x="492.2622" y="662.8232" width="215.709" height="61.9063" fill="#F1F1F1" style="stroke:#181818;stroke-width:0.5;" rx="12.5" ry="12.5"/><text x="502.2622" y="683.9619" fill="#000000" font-size="12" lengthAdjust="spacing" textLength="186.1641" font-family="'Arial'">Create text prompt combining:</text><text x="502.2622" y="697.9307" fill="#000000" font-size="12" lengthAdjust="spacing" textLength="122.5488" font-family="'Arial'">1. Car's current lane</text><text x="502.2622" y="711.8994" fill="#000000" font-size="12" lengthAdjust="spacing" textLength="195.709" font-family="'Arial'">2. The Database hazard warning</text><rect x="493.4575" y="866.6357" width="213.3184" height="33.9688" fill="#F1F1F1" style="stroke:#181818;stroke-width:0.5;" rx="12.5" ry="12.5"/><text x="503.4575" y="887.7744" fill="#000000" font-size="12" lengthAdjust="spacing" textLength="193.3184" font-family="'Arial'">Extract "MOVE_LEFT" from JSON</text><rect x="496.2173" y="920.6045" width="207.7988" height="33.9688" fill="#F1F1F1" style="stroke:#181818;stroke-width:0.5;" rx="12.5" ry="12.5"/><text x="506.2173" y="941.7432" fill="#000000" font-size="12" lengthAdjust="spacing" textLength="187.7988" font-family="'Arial'">Pass command down to Engine</text><line x1="455.4517" y1="76.6826" x2="455.4517" y2="1182.5107" style="stroke:#000000;stroke-width:1.5;"/><rect x="742.7817" y="76.6826" width="298.8174" height="1105.8281" fill="#90EE90" style="stroke:#90EE90;stroke-width:1;"/><rect x="781.3047" y="446.5107" width="223.7715" height="47.9375" fill="#F1F1F1" style="stroke:#181818;stroke-width:0.5;" rx="12.5" ry="12.5"/><text x="791.3047" y="467.6494" fill="#000000" font-size="12" lengthAdjust="spacing" textLength="203.7715" font-family="'Arial'">Save obstacle to Vector Database</text><text x="791.3047" y="481.6182" fill="#000000" font-size="12" lengthAdjust="spacing" textLength="105.4688" font-family="'Arial'">(Update the Map)</text><rect x="774.3789" y="582.3857" width="237.623" height="47.9375" fill="#F1F1F1" style="stroke:#181818;stroke-width:0.5;" rx="12.5" ry="12.5"/><text x="784.3789" y="603.5244" fill="#000000" font-size="12" lengthAdjust="spacing" textLength="111.9375" font-family="'Arial'">Database Returns:</text><text x="784.3789" y="617.4932" fill="#000000" font-size="12" lengthAdjust="spacing" textLength="217.623" font-family="'Arial'">"Blockage in Center Lane at Y=500"</text><rect x="770.2217" y="744.7295" width="245.9375" height="33.9688" fill="#F1F1F1" style="stroke:#181818;stroke-width:0.5;" rx="12.5" ry="12.5"/><text x="780.2217" y="765.8682" fill="#000000" font-size="12" lengthAdjust="spacing" textLength="225.9375" font-family="'Arial'">LLM reads prompt and decides action</text><rect x="807.0742" y="798.6982" width="172.2324" height="47.9375" fill="#F1F1F1" style="stroke:#181818;stroke-width:0.5;" rx="12.5" ry="12.5"/><text x="817.0742" y="819.8369" fill="#000000" font-size="12" lengthAdjust="spacing" textLength="112.9102" font-family="'Arial'">LLM Outputs JSON:</text><text x="817.0742" y="833.8057" fill="#000000" font-size="12" lengthAdjust="spacing" textLength="152.2324" font-family="'Arial'">{"action": "MOVE_LEFT"}</text><line x1="742.7817" y1="76.6826" x2="742.7817" y2="1182.5107" style="stroke:#000000;stroke-width:1.5;"/><line x1="1041.5991" y1="76.6826" x2="1041.5991" y2="1182.5107" style="stroke:#000000;stroke-width:1.5;"/><line x1="267.6785" y1="220.6045" x2="267.6785" y2="240.6045" style="stroke:#181818;stroke-width:1;"/><polygon points="263.6785,230.6045,267.6785,240.6045,271.6785,230.6045,267.6785,234.6045" fill="#181818" style="stroke:#181818;stroke-width:1;stroke-linejoin:miter;stroke-miterlimit:10;"/><line x1="156.8701" y1="1008.542" x2="156.8701" y2="1028.542" style="stroke:#181818;stroke-width:1;"/><polygon points="152.8701,1018.542,156.8701,1028.542,160.8701,1018.542,156.8701,1022.542" fill="#181818" style="stroke:#181818;stroke-width:1;stroke-linejoin:miter;stroke-miterlimit:10;"/><line x1="166.8701" y1="306.5732" x2="156.8701" y2="306.5732" style="stroke:#181818;stroke-width:1;"/><line x1="156.8701" y1="306.5732" x2="156.8701" y2="338.5732" style="stroke:#181818;stroke-width:1;"/><polygon points="152.8701,328.5732,156.8701,338.5732,160.8701,328.5732,156.8701,332.5732" fill="#181818" style="stroke:#181818;stroke-width:1;stroke-linejoin:miter;stroke-miterlimit:10;"/><line x1="368.4868" y1="306.5732" x2="378.4868" y2="306.5732" style="stroke:#181818;stroke-width:1;"/><line x1="378.4868" y1="306.5732" x2="378.4868" y2="338.5732" style="stroke:#181818;stroke-width:1;"/><polygon points="374.4868,328.5732,378.4868,338.5732,382.4868,328.5732,378.4868,332.5732" fill="#181818" style="stroke:#181818;stroke-width:1;stroke-linejoin:miter;stroke-miterlimit:10;"/><line x1="156.8701" y1="1062.5107" x2="156.8701" y2="1084.5107" style="stroke:#181818;stroke-width:1;"/><line x1="156.8701" y1="1084.5107" x2="255.6785" y2="1084.5107" style="stroke:#181818;stroke-width:1;"/><polygon points="245.6785,1080.5107,255.6785,1084.5107,245.6785,1088.5107,249.6785,1084.5107" fill="#181818" style="stroke:#181818;stroke-width:1;stroke-linejoin:miter;stroke-miterlimit:10;"/><line x1="378.4868" y1="372.542" x2="378.4868" y2="1084.5107" style="stroke:#181818;stroke-width:1;"/><line x1="378.4868" y1="1084.5107" x2="279.6785" y2="1084.5107" style="stroke:#181818;stroke-width:1;"/><polygon points="289.6785,1080.5107,279.6785,1084.5107,289.6785,1088.5107,285.6785,1084.5107" fill="#181818" style="stroke:#181818;stroke-width:1;stroke-linejoin:miter;stroke-miterlimit:10;"/><line x1="267.6785" y1="274.5732" x2="267.6785" y2="294.5732" style="stroke:#181818;stroke-width:1;"/><polygon points="263.6785,284.5732,267.6785,294.5732,271.6785,284.5732,267.6785,288.5732" fill="#181818" style="stroke:#181818;stroke-width:1;stroke-linejoin:miter;stroke-miterlimit:10;"/><line x1="267.6785" y1="166.6357" x2="267.6785" y2="186.6357" style="stroke:#181818;stroke-width:1;"/><polygon points="263.6785,176.6357,267.6785,186.6357,271.6785,176.6357,267.6785,180.6357" fill="#181818" style="stroke:#181818;stroke-width:1;stroke-linejoin:miter;stroke-miterlimit:10;"/><line x1="217.5276" y1="1128.5107" x2="39" y2="1128.5107" style="stroke:#181818;stroke-width:1;"/><polygon points="35,650.3232,39,640.3232,43,650.3232,39,646.3232" fill="#181818" style="stroke:#181818;stroke-width:1;stroke-linejoin:miter;stroke-miterlimit:10;"/><line x1="39" y1="154.6357" x2="39" y2="1128.5107" style="stroke:#181818;stroke-width:1;"/><line x1="39" y1="154.6357" x2="255.6785" y2="154.6357" style="stroke:#181818;stroke-width:1;"/><polygon points="245.6785,150.6357,255.6785,154.6357,245.6785,158.6357,249.6785,154.6357" fill="#181818" style="stroke:#181818;stroke-width:1;stroke-linejoin:miter;stroke-miterlimit:10;"/><line x1="267.6785" y1="1096.5107" x2="267.6785" y2="1116.5107" style="stroke:#181818;stroke-width:1;"/><polygon points="263.6785,1106.5107,267.6785,1116.5107,271.6785,1106.5107,267.6785,1110.5107" fill="#181818" style="stroke:#181818;stroke-width:1;stroke-linejoin:miter;stroke-miterlimit:10;"/><line x1="267.6785" y1="122.6357" x2="267.6785" y2="142.6357" style="stroke:#181818;stroke-width:1;"/><polygon points="263.6785,132.6357,267.6785,142.6357,271.6785,132.6357,267.6785,136.6357" fill="#181818" style="stroke:#181818;stroke-width:1;stroke-linejoin:miter;stroke-miterlimit:10;"/><line x1="267.6785" y1="1140.5107" x2="267.6785" y2="1160.5107" style="stroke:#181818;stroke-width:1;"/><polygon points="263.6785,1150.5107,267.6785,1160.5107,271.6785,1150.5107,267.6785,1154.5107" fill="#181818" style="stroke:#181818;stroke-width:1;stroke-linejoin:miter;stroke-miterlimit:10;"/><line x1="600.1167" y1="900.6045" x2="600.1167" y2="920.6045" style="stroke:#181818;stroke-width:1;"/><polygon points="596.1167,910.6045,600.1167,920.6045,604.1167,910.6045,600.1167,914.6045" fill="#181818" style="stroke:#181818;stroke-width:1;stroke-linejoin:miter;stroke-miterlimit:10;"/><line x1="893.1904" y1="778.6982" x2="893.1904" y2="798.6982" style="stroke:#181818;stroke-width:1;"/><polygon points="889.1904,788.6982,893.1904,798.6982,897.1904,788.6982,893.1904,792.6982" fill="#181818" style="stroke:#181818;stroke-width:1;stroke-linejoin:miter;stroke-miterlimit:10;"/><line x1="156.8701" y1="372.542" x2="156.8701" y2="377.542" style="stroke:#181818;stroke-width:1;"/><line x1="156.8701" y1="377.542" x2="600.1167" y2="377.542" style="stroke:#181818;stroke-width:1;"/><line x1="600.1167" y1="377.542" x2="600.1167" y2="392.542" style="stroke:#181818;stroke-width:1;"/><polygon points="596.1167,382.542,600.1167,392.542,604.1167,382.542,600.1167,386.542" fill="#181818" style="stroke:#181818;stroke-width:1;stroke-linejoin:miter;stroke-miterlimit:10;"/><line x1="600.1167" y1="426.5107" x2="600.1167" y2="431.5107" style="stroke:#181818;stroke-width:1;"/><line x1="600.1167" y1="431.5107" x2="893.1904" y2="431.5107" style="stroke:#181818;stroke-width:1;"/><line x1="893.1904" y1="431.5107" x2="893.1904" y2="446.5107" style="stroke:#181818;stroke-width:1;"/><polygon points="889.1904,436.5107,893.1904,446.5107,897.1904,436.5107,893.1904,440.5107" fill="#181818" style="stroke:#181818;stroke-width:1;stroke-linejoin:miter;stroke-miterlimit:10;"/><line x1="893.1904" y1="494.4482" x2="893.1904" y2="499.4482" style="stroke:#181818;stroke-width:1;"/><line x1="893.1904" y1="499.4482" x2="600.1167" y2="499.4482" style="stroke:#181818;stroke-width:1;"/><line x1="600.1167" y1="499.4482" x2="600.1167" y2="514.4482" style="stroke:#181818;stroke-width:1;"/><polygon points="596.1167,504.4482,600.1167,514.4482,604.1167,504.4482,600.1167,508.4482" fill="#181818" style="stroke:#181818;stroke-width:1;stroke-linejoin:miter;stroke-miterlimit:10;"/><line x1="600.1167" y1="562.3857" x2="600.1167" y2="567.3857" style="stroke:#181818;stroke-width:1;"/><line x1="600.1167" y1="567.3857" x2="893.1904" y2="567.3857" style="stroke:#181818;stroke-width:1;"/><line x1="893.1904" y1="567.3857" x2="893.1904" y2="582.3857" style="stroke:#181818;stroke-width:1;"/><polygon points="889.1904,572.3857,893.1904,582.3857,897.1904,572.3857,893.1904,576.3857" fill="#181818" style="stroke:#181818;stroke-width:1;stroke-linejoin:miter;stroke-miterlimit:10;"/><line x1="893.1904" y1="630.3232" x2="893.1904" y2="645.3232" style="stroke:#181818;stroke-width:1;"/><line x1="893.1904" y1="645.3232" x2="600.1167" y2="645.3232" style="stroke:#181818;stroke-width:1;"/><line x1="600.1167" y1="645.3232" x2="600.1167" y2="662.8232" style="stroke:#181818;stroke-width:1;"/><polygon points="596.1167,652.8232,600.1167,662.8232,604.1167,652.8232,600.1167,656.8232" fill="#181818" style="stroke:#181818;stroke-width:1;stroke-linejoin:miter;stroke-miterlimit:10;"/><line x1="600.1167" y1="724.7295" x2="600.1167" y2="729.7295" style="stroke:#181818;stroke-width:1;"/><line x1="600.1167" y1="729.7295" x2="893.1904" y2="729.7295" style="stroke:#181818;stroke-width:1;"/><line x1="893.1904" y1="729.7295" x2="893.1904" y2="744.7295" style="stroke:#181818;stroke-width:1;"/><polygon points="889.1904,734.7295,893.1904,744.7295,897.1904,734.7295,893.1904,738.7295" fill="#181818" style="stroke:#181818;stroke-width:1;stroke-linejoin:miter;stroke-miterlimit:10;"/><line x1="893.1904" y1="846.6357" x2="893.1904" y2="851.6357" style="stroke:#181818;stroke-width:1;"/><line x1="893.1904" y1="851.6357" x2="600.1167" y2="851.6357" style="stroke:#181818;stroke-width:1;"/><line x1="600.1167" y1="851.6357" x2="600.1167" y2="866.6357" style="stroke:#181818;stroke-width:1;"/><polygon points="596.1167,856.6357,600.1167,866.6357,604.1167,856.6357,600.1167,860.6357" fill="#181818" style="stroke:#181818;stroke-width:1;stroke-linejoin:miter;stroke-miterlimit:10;"/><line x1="600.1167" y1="954.5732" x2="600.1167" y2="959.5732" style="stroke:#181818;stroke-width:1;"/><line x1="600.1167" y1="959.5732" x2="156.8701" y2="959.5732" style="stroke:#181818;stroke-width:1;"/><line x1="156.8701" y1="959.5732" x2="156.8701" y2="974.5732" style="stroke:#181818;stroke-width:1;"/><polygon points="152.8701,964.5732,156.8701,974.5732,160.8701,964.5732,156.8701,968.5732" fill="#181818" style="stroke:#181818;stroke-width:1;stroke-linejoin:miter;stroke-miterlimit:10;"/><text x="120.0491" y="93.3906" fill="#000000" font-size="18" lengthAdjust="spacing" textLength="235.3535" font-family="'Arial'">Game Engine (The Driver)</text><text x="466.1733" y="93.3906" fill="#000000" font-size="18" lengthAdjust="spacing" textLength="265.8867" font-family="'Arial'">Python Manager (LangGraph)</text><text x="753.5034" y="93.3906" fill="#000000" font-size="18" lengthAdjust="spacing" textLength="277.374" font-family="'Arial'">Database &amp; LLM (Map &amp; Brain)</text><?plantuml-src bLHTJzj047pthzYwKkiy544hNX9LA40IjKq23HGKAH9Qx7LymhwpxjQOjEb_xvxpGNY1viMoV7ipixEpVbTQd1S8EIvCnU0AOjGOk0UbIxHOm3cbMENSDvh7M124NQim3tSgCjH9RHKpQKWnTnG4h3Wdc7G7TnECoRQXhpJcC3Hp5KC_DtKGBDyFrJpZqxoY9GmySa_FbIQ8hZE2SwiUoRPWkQcRKYxNbd2vuCne68d8ELc8XgZd0ujbjbCxi4Hw2UV8U8-Eu0CCXoE8HbZAwwb5fNrny2gjOxGSM2e9EG1eDoUG6bkZJI3wfcDB7dlwgJHEiJAwrV5r4zA9wFeYXcfoyAXSXNc-w0Hog5A8haWxOnqan1Gp88nxjs3kXIxEwQG5d8cBqPHSIou8djGdstD8f2LWisc_qzGqZpUSQR0c59FlGbFz31aROnEP3fDx0VU6UojnA6XR9D5r8pqPkxqxqz6lKZIJRqkKbQqz5V-io2wsS6sOwV0sGmRbG4dOh8GIJDgWnsZ1-kc3DlL9k7Slsve9SMMrQyXESnC_Y3ZFTaQQHQM89109qw_7XuVXdlsSIMYy6_J4K5fJb2p-5_TAAprlp_JH0PoX_UWWhgmLkYP4C_tv09fmRXHc-Dk7K9Bex-tTgJyG7OdRI93zbJp6Af70Okopt7cklAYuhDZ1zwkBiKZy4wugmZQ4eukRtjsmrxyE_-xfG--9hU3iGlXf5WtBclmIdVFk58qyKsiViDMolc1xPOdNN1HNOleErvgXgrNXn-6ZupALihZfIPeH7sr9I7vf48rDwpy9Vn2LaCWt3-UaKPzAZoQhhD9W_LE1EbEoD563rXLF7_twIx1No-_ObFy0?></g></svg>